<?xml version="1.0" encoding="UTF-8"?>
<svg version="1.1" xmlns="http://www.w3.org/2000/svg" width="64" height="71">
<path d="M0 0 C1.19786133 -0.03673828 1.19786133 -0.03673828 2.41992188 -0.07421875 C6.35490528 -0.09377956 8.58730526 0.10785684 12.078125 2.0703125 C14.39382577 4.75980748 14.73662013 6.11937654 14.875 9.625 C14.92269531 10.51703125 14.97039063 11.4090625 15.01953125 12.328125 C15.03371094 13.00359375 15.04789063 13.6790625 15.0625 14.375 C16.114375 14.313125 17.16625 14.25125 18.25 14.1875 C22.30184908 14.38677127 23.97139174 14.81379601 27.0625 17.375 C29.115314 21.3801406 29.36045434 24.84698129 29.375 29.3125 C29.39175781 30.49714844 29.40851562 31.68179687 29.42578125 32.90234375 C29.02462885 36.73701564 28.09012507 39.11275545 26.0625 42.375 C23.02724514 44.39850324 21.86823798 44.69624018 18.375 45 C17.56675781 45.07476562 16.75851563 45.14953125 15.92578125 45.2265625 C15.31089844 45.27554688 14.69601563 45.32453125 14.0625 45.375 C14.14951172 46.27992187 14.14951172 46.27992187 14.23828125 47.203125 C14.37767592 49.67240203 14.40486529 51.92349545 14.0625 54.375 C10.72005971 58.08882254 7.58201401 59.15554484 2.73046875 59.578125 C-2.96962312 59.68584327 -6.98695262 59.30491579 -11.9375 56.375 C-15.24645436 52.53234332 -15.22880183 49.32713111 -14.9375 44.375 C-16.154375 44.4575 -17.37125 44.54 -18.625 44.625 C-21.96866277 44.63092848 -22.8918162 44.40318788 -25.875 42.5625 C-29.47865381 38.74044293 -29.12790307 35.05580604 -29.1875 30 C-29.21328125 28.69289063 -29.2390625 27.38578125 -29.265625 26.0390625 C-28.83436142 21.22328591 -27.30213888 18.73963888 -23.9375 15.375 C-21.7734375 14.9609375 -21.7734375 14.9609375 -19.3125 14.75 C-18.08660156 14.63785156 -18.08660156 14.63785156 -16.8359375 14.5234375 C-16.20945312 14.47445313 -15.58296875 14.42546875 -14.9375 14.375 C-14.999375 12.7971875 -14.999375 12.7971875 -15.0625 11.1875 C-14.9441441 7.57764518 -14.71236902 5.48102079 -12.9375 2.375 C-8.72594721 -0.2088094 -4.80524236 0.00771926 0 0 Z M-8.9375 5.375 C-8.9375 6.695 -8.9375 8.015 -8.9375 9.375 C-7.9475 9.045 -6.9575 8.715 -5.9375 8.375 C-6.2675 7.385 -6.5975 6.395 -6.9375 5.375 C-7.5975 5.375 -8.2575 5.375 -8.9375 5.375 Z M-9.9375 29.375 C-9.9375 29.705 -9.9375 30.035 -9.9375 30.375 C-4.3275 30.375 1.2825 30.375 7.0625 30.375 C7.0625 30.045 7.0625 29.715 7.0625 29.375 C1.4525 29.375 -4.1575 29.375 -9.9375 29.375 Z M-14.9375 34.375 C-13.9375 36.375 -13.9375 36.375 -13.9375 36.375 Z M7.0625 49.375 C6.7325 50.695 6.4025 52.015 6.0625 53.375 C7.3825 53.045 8.7025 52.715 10.0625 52.375 C9.7325 51.385 9.4025 50.395 9.0625 49.375 C8.4025 49.375 7.7425 49.375 7.0625 49.375 Z " fill="#3D79AA" transform="translate(28.9375,-0.375)"/>
<path d="M0 0 C4.95224859 -0.29130874 8.10188939 -0.22986308 12 3 C14.052814 7.0051406 14.29795434 10.47198129 14.3125 14.9375 C14.32925781 16.12214844 14.34601562 17.30679687 14.36328125 18.52734375 C13.96212885 22.36201564 13.02762507 24.73775545 11 28 C7.96474514 30.02350324 6.80573798 30.32124018 3.3125 30.625 C2.50425781 30.69976562 1.69601563 30.77453125 0.86328125 30.8515625 C-0.05904297 30.92503906 -0.05904297 30.92503906 -1 31 C-0.94199219 31.60328125 -0.88398437 32.2065625 -0.82421875 32.828125 C-0.68482408 35.29740203 -0.65763471 37.54849545 -1 40 C-4.34244029 43.71382254 -7.48048599 44.78054484 -12.33203125 45.203125 C-18.03212312 45.31084327 -22.04945262 44.92991579 -27 42 C-30.18634856 37.90326614 -30.40567344 34.61223994 -30.375 29.5 C-30.38273437 28.2109375 -30.39046875 26.921875 -30.3984375 25.59375 C-29.95236529 21.57035359 -28.88240023 18.88240023 -26 16 C-22.29162775 15.7954524 -18.58980384 15.65368044 -14.87695312 15.5703125 C-9.89706721 15.37486318 -6.31360408 14.75798938 -2 12 C-0.78306124 9.56612247 -0.68040104 7.58161154 -0.4375 4.875 C-0.35371094 3.96492188 -0.26992188 3.05484375 -0.18359375 2.1171875 C-0.09271484 1.06917969 -0.09271484 1.06917969 0 0 Z M-8 35 C-8.33 36.32 -8.66 37.64 -9 39 C-7.68 38.67 -6.36 38.34 -5 38 C-5.33 37.01 -5.66 36.02 -6 35 C-6.66 35 -7.32 35 -8 35 Z " fill="#FFDE57" transform="translate(44,14)"/>
<path d="M0 0 C1.02287109 -0.01836914 1.02287109 -0.01836914 2.06640625 -0.03710938 C6.78131519 -0.05058054 10.64644019 0.70828899 15.125 2.1875 C15.125 3.1775 15.125 4.1675 15.125 5.1875 C10.02532424 7.23552979 5.59305433 7.52242969 0.1875 7.5 C-0.97168945 7.52416992 -0.97168945 7.52416992 -2.15429688 7.54882812 C-7.46842595 7.5533202 -11.12849341 6.58287417 -15.875 4.1875 C-11.81903727 -0.72234962 -5.92538964 0.00553775 0 0 Z " fill="#959595" transform="translate(28.875,62.8125)"/>
<path d="M0 0 C0.69287109 0.00451172 1.38574219 0.00902344 2.09960938 0.01367188 C3.79561068 0.02536844 5.49156703 0.04330076 7.1875 0.0625 C3.55554504 2.48380331 1.80400652 2.27272785 -2.5 2.1875 C-3.67949219 2.16945313 -4.85898437 2.15140625 -6.07421875 2.1328125 C-6.97785156 2.10960938 -7.88148437 2.08640625 -8.8125 2.0625 C-7.8225 3.3825 -6.8325 4.7025 -5.8125 6.0625 C-12.33557692 6.43173077 -12.33557692 6.43173077 -14.75 4.5625 C-15.2759375 3.82 -15.2759375 3.82 -15.8125 3.0625 C-10.78198894 -0.29117404 -5.8984437 -0.07337777 0 0 Z " fill="#858585" transform="translate(28.8125,62.9375)"/>
<path d="M0 0 C1.19882812 0.15275391 1.19882812 0.15275391 2.421875 0.30859375 C3.02515625 0.39238281 3.6284375 0.47617188 4.25 0.5625 C3.92 1.8825 3.59 3.2025 3.25 4.5625 C-2.69 5.0575 -2.69 5.0575 -8.75 5.5625 C-8.75 3.89583333 -8.75 2.22916667 -8.75 0.5625 C-5.62819599 -0.40411363 -3.22916205 -0.42738909 0 0 Z " fill="#A4A4A4" transform="translate(28.75,64.4375)"/>
<path d="M0 0 C2.97 0.495 2.97 0.495 6 1 C6 1.99 6 2.98 6 4 C4.02 4.33 2.04 4.66 0 5 C0.66 4.67 1.32 4.34 2 4 C1.34 2.68 0.68 1.36 0 0 Z " fill="#878787" transform="translate(38,64)"/>
</svg>
